<svg xmlns="http://www.w3.org/2000/svg" xmlns:xlink="http://www.w3.org/1999/xlink" width="566" height="707.482" viewBox="0 0 566 707.482"><defs><style>.a{fill:none;}.b{opacity:0.2;}.c{fill:#ff9b21;}.d{fill:#2b44ff;}.e{fill:#2026a2;}.f{fill:#f2f2f2;}.g{fill:#1f28cf;}.h{clip-path:url(#c);}.i{fill:#b28b67;}.j{fill:#191847;}.k{fill:#997659;}.l{fill:#e4e4e4;}.m{fill:#dde3e9;}.n{fill:#2f3676;}.o{fill:rgba(0,0,0,0.1);}.p{fill:rgba(255,255,255,0.2);}.q{filter:url(#a);}</style><filter id="a" x="0" y="81.036" width="370.855" height="626.445" filterUnits="userSpaceOnUse"><feOffset dx="-10" dy="22" input="SourceAlpha"/><feGaussianBlur stdDeviation="17" result="b"/><feFlood flood-opacity="0.102"/><feComposite operator="in" in2="b"/><feComposite in="SourceGraphic"/></filter><clipPath id="c"><rect class="a" width="319" height="504"/></clipPath></defs><g transform="translate(-549 -40)"><g class="b" transform="translate(655 40)"><circle class="c" cx="230" cy="230" r="230" transform="translate(0 63)"/><path class="d" d="M49,0,98,49,49,98,0,49Z" transform="translate(143)"/><path class="e" d="M12,0,24,12,12,24,0,12Z" transform="translate(391 63)"/></g><g transform="translate(610 147)"><g transform="matrix(0.999, -0.035, 0.035, 0.999, 0, 11.796)"><g class="q" transform="matrix(1, 0.03, -0.03, 1, -56.82, -120.85)"><rect class="f" width="251" height="516" rx="36.45" transform="matrix(1, -0.03, 0.03, 1, 61, 118.8)"/></g><path class="g" d="M203.974,493.319H24.3A24.28,24.28,0,0,1,0,469.019V24.3A24.28,24.28,0,0,1,24.3,0H53V4.051a13.68,13.68,0,0,0,4.033,9.737,13.68,13.68,0,0,0,9.737,4.033h95.423a13.68,13.68,0,0,0,9.737-4.033,13.68,13.68,0,0,0,4.033-9.737V0h28.011a24.279,24.279,0,0,1,24.3,24.3V469.019a24.28,24.28,0,0,1-24.3,24.3Z" transform="translate(11 11)"/><g transform="translate(19)"><rect class="a" width="319" height="504"/><g class="h"><g transform="translate(-80.811 -134.489) rotate(14)"><g transform="matrix(0.848, 0.53, -0.53, 0.848, 325.785, 0.288)"><g transform="translate(92.367 52.955)"><path class="i" d="M0,124.7,14.132,58.915C6.251,49.676.916,38.353,1.807,25.666,4.377-10.89,55.332-2.848,65.243,15.6s8.735,65.251-4.075,68.549c-5.109,1.315-15.992-1.906-27.069-8.574l6.953,49.12Z" transform="translate(0 0)"/></g><path class="j" d="M89.57,92.243c-6.3,0-12.136-4.019-16.441-11.316-4.08-6.916-6.42-16.284-6.42-25.7,0-.657.013-1.333.04-2.008-4.521,3.1-8.8,7.243-12.931,11.251-4.427,4.291-9,8.729-13.992,12.023-5.6,3.7-11.1,5.5-16.8,5.5-6.363,0-12.283-3.27-16.67-9.208A33.516,33.516,0,0,1,0,53.256a26.776,26.776,0,0,1,1.3-8.45,20.333,20.333,0,0,1,4.087-7.189,19.226,19.226,0,0,1,7.149-5,27.631,27.631,0,0,1,10.486-1.873c24.178,0,36,3.488,46.311,8.725A33.218,33.218,0,0,1,78.21,25.654a13.76,13.76,0,0,1,4.08-2.892A19.136,19.136,0,0,1,85.7,21.3c6.391-2.344,15.548-3.88,25.124-4.214,1.345-.047,2.69-.07,4-.07.5,0,1,0,1.49.01a17.1,17.1,0,1,1,18.031,17.111,86.138,86.138,0,0,1-19.134,3.248,35.727,35.727,0,0,1,1.1,9.164,51.644,51.644,0,0,1-.954,9.529,7.971,7.971,0,0,0-5.889-3.127,10.107,10.107,0,0,0-7.4,3.146,10.419,10.419,0,0,0-2.862,7.1,13.166,13.166,0,0,0,2.643,8.333,9.42,9.42,0,0,0,6.883,3.6,45.856,45.856,0,0,1-8.854,12.213C96.4,90.6,92.932,92.243,89.57,92.243Z" transform="translate(11.973 34.164)"/></g><g transform="translate(0.546 333.278)"><path class="g" d="M0,26.979S61.533,44.2,106.177,44.2s82.936-26.524,82.936-26.524S128.9,0,89.933,0,0,26.979,0,26.979Z" transform="translate(166.567 140.879)"/><path class="k" d="M103.056,201.632a9.683,9.683,0,0,1-.995-1.944C96.578,185.177,8.75,28.622,0,0H98.883c6.653,21.762,36.6,158.329,40.81,185.576,13.3,42.979,40.671,182.174,44.165,191.817,3.676,10.144-17.009,20.712-22.521,8.241-8.771-19.844-29.669-74.75-38.974-108.276C113.639,245.927,106.536,217.65,103.056,201.632Z" transform="translate(205.2)"/><path class="i" d="M210.041,220.746c-40.154,10.156-187.028,28.517-197.107,31.4C2.566,255.106-6.525,233.718,6.29,229.085c20.392-7.372,76.581-24.4,110.649-31.355,27.4-5.591,52.407-10.153,69.194-12.824C184.712,137.714,178.21,24.461,182.472,0h87.493c-4.086,23.456-38.629,194.6-45.049,211.736-2.037,6.116-8.117,8.819-14.875,9.01Z" transform="translate(17.316 0)"/><g transform="matrix(0.174, 0.985, -0.985, 0.174, 66.519, 211.329)"><path class="l" d="M4.474,5.033A2,2,0,0,0,1.908,6.381L0,13.106A64.242,64.242,0,0,0,.9,21H57.3s2.2-7.268-2.538-7.848-7.87-1.047-7.87-1.047L20.68.419a1,1,0,0,0-1.332.532L17.663,5.039s-4.385,2.046-7.127,2.046Z" transform="translate(1 19)"/></g><g transform="translate(355.68 340.548)"><path class="l" d="M7.65,8.377a3.42,3.42,0,0,0-4.386,2.308L0,22.192C0,26.821,1.541,35.7,1.541,35.7H97.988s3.759-12.438-4.34-13.43S80.19,20.48,80.19,20.48L35.363.481a1.71,1.71,0,0,0-2.277.911l-2.881,7s-7.5,3.5-12.186,3.5Z" transform="translate(1.71 32.751)"/></g><path class="d" d="M39.945,7.9s57.833-16.559,109.44,0c11.97,54.654,41.055,76.347,46.17,160.141-58.14,28.91-129.96-20.618-189.81,7.575C-11.355,136.178,12.585,41.207,39.945,7.9Z" transform="translate(160.125 -7.897)"/></g><g transform="translate(139.534 108.688) rotate(21)"><path class="i" d="M2.1,153.519c-1.909-1.176-4-5.6,1.051-9.061,12.586-8.619,30.723-23.7,33.173-28.667C41.336,105.636,58.405,6.657,58.405,6.657L94.149,6.8S61.044,113.528,58.405,120.057c-3.958,9.8,4.418,24.715,8,32.732-5.645,2.523-8.268-.7-11.139-3.919-3.06-3.433-6.406-6.866-14-3.338-9.716,4.515-17.75,11.681-27.325,11.68A22.239,22.239,0,0,1,2.1,153.519Zm305.67-96.043L257.383,27.81,273.476,0l48.456,47.207q21.147,9.007,34.654,19.894c2.026,2.44,4.23,7.113-5.3,5.023s-19.645-3.863-21.435-.77,3.485,7.836.175,11.887a1.253,1.253,0,0,1-1.015.484Q324.454,83.725,307.769,57.476Z" transform="translate(58.435 152.239)"/><path class="j" d="M0,3.811,14.513,0Q60.871,91.6,162.476,160.885l-42.7,62.133C50.133,154.9,4.526,82.332,0,3.811Z" transform="matrix(0.996, 0.087, -0.087, 0.996, 218.754, 5.311)"/><path class="m" d="M0,194.734H131.708S85.937,83.6,85.937,5.912L46.208,0C14.984,50.15,6.166,111.895,0,194.734Z" transform="translate(153.944)"/><path class="n" d="M0,251.1C14.4,88.819,105.2,0,105.2,0l.031.027L105.249,0h2.594c4.655.16,14.18.577,14.18.577l9.6,27.4c1.524,50.106,17.791,201.958,17.791,201.958H63.2q.22,10.443.993,21.171Z" transform="translate(94.077 0)"/><path class="o" d="M24.124,84.553H.106A435.851,435.851,0,0,1,6.6,0,458.765,458.765,0,0,0,12.4,47.292c3.129,16.926,7.073,29.461,11.723,37.258Z" transform="translate(157.188 146.054)"/><path class="p" d="M0,19.765,42.573,0V19.765Z" transform="translate(176.37 157.887)"/></g></g></g></g></g></g></g></svg>