<svg xmlns="http://www.w3.org/2000/svg" width="1365.378" height="698.159" viewBox="0 0 1365.378 698.159"><defs><style>.a{fill:#fdfdfd;}.b{fill:#f2f2f2;}.c{fill:rgba(0,0,0,0.1);}.d{fill:#afb9c5;}.e{fill:#c5cfd6;}.f{fill:none;stroke:#cbcbcb;stroke-miterlimit:10;stroke-width:8px;}.g,.l{fill:#c1dee2;}.h{fill:#89c5cc;}.i{fill:#69a1ac;}.j{fill:#fff;}.k{opacity:0.857;}.l{opacity:0.5;}.m{opacity:0.826;}.n{opacity:0.996;}.o{fill:#997659;}.p{fill:#b28b67;}.q{fill:#9799c3;}.r{fill:#191847;}.s{fill:#7d77ba;}.t{fill:#2026a2;}.u{fill:#1f28cf;}</style></defs><g transform="translate(883.722 -3760)"><path class="a" d="M2,166c34.624-83.973,384.313-36.039,614-62s502.158-147.225,682-88-11.52,202.693-424,235S-32.624,249.973,2,166Z" transform="translate(-884 4195)"/><g transform="translate(-12 1269)"><g transform="translate(157 2491)"><circle class="b" cx="53" cy="53" r="53"/><circle class="c" cx="3" cy="3" r="3" transform="translate(50 8)"/><circle class="c" cx="3" cy="3" r="3" transform="translate(8 50)"/><circle class="c" cx="3" cy="3" r="3" transform="translate(92 50)"/><circle class="c" cx="3" cy="3" r="3" transform="translate(50 92)"/><path class="d" d="M2,0,4,35H0Z" transform="translate(51 17)"/><path class="d" d="M2,0,4,24H0Z" transform="translate(72.113 69.284) rotate(135)"/><circle class="e" cx="4" cy="4" r="4" transform="translate(49 49)"/></g><g transform="translate(176 2604)"><path class="f" d="M.5,24.5l18-19a7.624,7.624,0,0,1,11,0l50,50a15.609,15.609,0,0,1,5,11v328" transform="translate(60 12)"/><rect class="d" width="59" height="7" rx="3" transform="translate(114 405)"/><g transform="translate(48.79 1) rotate(45)"><path class="e" d="M33,0h0A33,33,0,0,1,66,33V61a0,0,0,0,1,0,0H0a0,0,0,0,1,0,0V33A33,33,0,0,1,33,0Z" transform="translate(0.03 1.384)"/><ellipse class="b" cx="33" cy="6.5" rx="33" ry="6.5" transform="translate(0.209 54.945)"/></g></g><g transform="translate(189 2734)"><g transform="translate(13)"><path class="g" d="M0,0C8.833,20.989,24.047,36.176,32,58a121.559,121.559,0,0,1,7,41c.065,7.828.037,16.172,0,24-.036,7.634-.352,14.415-1,22-.651,7.625-1.678,15.327-2,23-.25,5.978.026,13.547-2,19-1.611,4.337-5.913,4.26-7-1-.6-2.924-.067-6,0-9,.085-3.855-.114-7.145,0-11,.46-15.468-.312-31.526,0-47,.3-15.119,2.15-29.982,0-45-1.776-12.4-5.816-22.791-11-33C11.012,31.178,5.371,21.173,2,10A53.917,53.917,0,0,1,0,0C.157-.073-.1-.192,0,0Z" transform="translate(3 0)"/><path class="h" d="M1,1C2.749,2.263,3.818,4.177,5,6c1.47,2.266,3.53,3.732,5,6,3.065,4.728,5.206,10.08,8,15A94.908,94.908,0,0,1,29,57a322.68,322.68,0,0,1,4,34c.92,12.044,1.878,23.909,2,36,.055,5.417.65,11.621,0,17-.4,3.349-2.593,6.027-6,6-7.237-.057-10.581-8.426-12-15-2.089-9.679-2.331-20.1-2-30,.4-11.936,2.1-23.11,3-35,.95-12.587.327-25.149-4-37-2.186-5.989-4.722-12.051-7-18A50.767,50.767,0,0,0,4,8,71.523,71.523,0,0,1,0,0C.324.206.676.794,1,1Z" transform="translate(0 41)"/><path class="g" d="M17,1c.222-.172.778-.827,1-1-.639,2.693-2.118,4.539-3,7-.793,2.213-.466,4.581-1,7-1.255,5.681-2.815,11.271-4,17C7.654,42.337,7.462,55.422,9,68c1.453,11.881,3.905,23.121,5,35,.908,9.851,1.866,20.6,1,30-.588,6.383-2.746,13.644-8,13-2.474-.3-3.48-3.639-4-7-.835-5.4-1.674-10.632-2-16C.274,111.018.143,98.858,0,87-.136,75.812-.748,64.907,0,54,.721,43.476,3.775,33.75,7,25c1.7-4.61,3.092-9.606,5-14,.915-2.107,2.084-3.894,3-6C15.736,3.306,15.814,2.083,17,1Z" transform="translate(67 16)"/><path class="g" d="M0,0C.957-1.606,3.679,4.334,4,5c-.136-.331-.863-.669-1-1,1.9,3.158,3.92,6.379,5,10,1.069,3.585,2,7.39,3,11,1.882,6.774,4.295,13.165,6,20a65.245,65.245,0,0,1,2,20c-.418,7.16-1.488,13.844-1,21,.233,3.418,2.239,6.709,3,10s1.1,6.747,2,10c.207-.424,0,.892,0,1a11.774,11.774,0,0,1,0,3,5.991,5.991,0,0,1-4,4c-3.456.988-6.885-2.68-8-6-1.6-4.764-2.238-9.993-3-15A72.459,72.459,0,0,1,7,79c.409-9.179,2.551-17.824,3-27,.489-9.99-2.343-19.276-4-29-.8-4.686-1.447-9.536-3-14A36.427,36.427,0,0,0,1,4C.511,3.05-.64,1.116,0,0Z" transform="translate(3 76)"/><path class="i" d="M10,36c-.4,11.445-.474,22.676-2,34C6.443,81.556,4.5,92.433,3,104c-1.459,11.259-3.2,23.584-3,35,.15,8.409-1.339,21.85,8,26,9.459,4.2,11.379-13.076,12-19,1.19-11.366.578-23.572,0-35-.593-11.729-.773-23.314-2-35-1.363-12.981-3.142-25.982-4-39-.425-6.439-.117-12.56,0-19,.111-6.078.161-12.23-2-18-.113.082-.887-.082-1,0" transform="translate(21 25)"/><path class="h" d="M12,6c-1.7,2.478-3.394,5.375-5,8-2.874,4.7-5.218,9.285-6,16C-.636,44.054.683,59.516,1,74c.065,2.96-.167,6.183,1,9,1.058,2.554,3.115,4.01,5,4,4.035-.023,2.993-9.65,3-14,.012-7.623-1.074-15.384-1-23a155.006,155.006,0,0,1,2-22A131.884,131.884,0,0,1,16,7c.3-.9,2.014-8.2,0-7" transform="translate(68 91)"/><path class="i" d="M14,0c-2.653,0-1.92,13.3-2,15-.288,6.131-.818,11.868-1,18-.4,13.381-.99,26.773-3,40C6.918,80.12,6.35,87.934,5,95c-1.353,7.087-4.11,13.823-5,21-.855,6.9-.117,14.067,0,21,.117,6.975.086,14.086,1,21,.225,1.707.717,3.3,1,5a32.383,32.383,0,0,0,1,4,4.629,4.629,0,0,0,5,3c4.993-.912,8.294-7.42,10-12,2.178-5.848,2.86-11.837,4-18,1.292-6.983,2.645-13.891,3-21,.722-14.448.035-29.6-1-44-.576-8.009-1.983-16.04-3-24-1.013-7.926-2.153-15.051-3-23-.615-5.777-1.6-12.2-2-18-.1-1.383.029-10-2-10" transform="translate(48 22)"/><path class="h" d="M27,118c-.432-13.886-5.73-75.208-7-92-.318-4.2-3.6-21.235-4-26-1.075,1.347-1.012,22.183-1,27,.012,4.765-.7,9.261-1,14-.31,4.836-7.072,67.354-8,72-1.846,9.244-3.047,18.549-4,28-.928,9.212-3.242,19.74-2,29a27.767,27.767,0,0,0,2,6c.795,2.116,1.362,3.786,2,6a12.753,12.753,0,0,0,6,8c5.849,3.019,8.408-4.05,10-10a157.829,157.829,0,0,0,5-29c.847-11.04,2.346-21.883,2-33" transform="translate(32 0)"/></g><g transform="translate(0 159)"><rect class="j" width="91" height="91" rx="2" transform="translate(10)"/><rect class="e" width="10" height="113" rx="2" transform="translate(0 10)"/><rect class="e" width="10" height="113" rx="2" transform="translate(50 10)"/><rect class="e" width="10" height="113" rx="2" transform="translate(101 10)"/></g></g></g><g class="k" transform="translate(-348.274 3926.301)"><path class="i" d="M4.587,101.773a11.36,11.36,0,0,1-1.313-.074c-1.432-.167-2.259-.492-2.6-1.021-.393-.606-.139-1.419.182-2.447a15.641,15.641,0,0,0,.42-1.532c.485-2.362.015-5.4-.439-8.346A43.853,43.853,0,0,1,.274,83.7c-.711-17.547-.39-35.8,0-53C.325,28.457.3,26.153.269,23.925c-.03-2.378-.06-4.836.006-7.226.013-.486.033-.924.052-1.347A21.485,21.485,0,0,0,.274,11.7,6.458,6.458,0,0,0-.01,10.511,2.666,2.666,0,0,1,.274,7.7C.937,6.833,2.34,6.43,4.688,6.43c1,0,2.046.07,3.116.149l.214.016c.93.069,1.808.134,2.526.134.282,0,.521-.01.731-.03l1.019-.1c3.6-.348,7.316-.709,10.981-.9,12.69-.667,25.566-1.564,38.019-2.432C86.481,1.513,112.526-.3,138.274-.3c.654,0,1.3,0,1.987-.006h.017c.685,0,1.393-.006,2.1-.006A60.639,60.639,0,0,1,155.274.7a8.064,8.064,0,0,1,1.478.521,5.157,5.157,0,0,0,1.522.479,2.241,2.241,0,0,0,.23.012,2.623,2.623,0,0,0,.6-.077l.025-.006a2.256,2.256,0,0,1,.5-.072,1.654,1.654,0,0,1,.644.142c1.348.558,1.624,1.592,1.973,2.9l.027.1c.473,1.767-.028,4.378-.47,6.682a32.852,32.852,0,0,0-.529,3.318,78.628,78.628,0,0,0-.082,8.738c.039,1.382.078,2.808.082,4.262q0,.757,0,1.513v.006a176.257,176.257,0,0,0,1,22.482c.742,5.764,1.641,13.36,2,21,.107,2.262.321,4.682.528,7.021.176,1.991.359,4.049.471,5.98a11.672,11.672,0,0,1-.058,1.588,7.444,7.444,0,0,0,.058,2.411.815.815,0,0,0,.63.682c.17.056.316.1.369.318.646,2.6.7,3.24-2,4a53.32,53.32,0,0,1-10.717,1.721c-3.648.258-7.263.279-10.954.279h-2.762c-6.241,0-12.507-.057-18.566-.112s-12.317-.111-18.527-.111c-6.937,0-12.98.073-18.474.223-4.638.127-9.339.222-13.886.315-13.48.274-27.417.557-41.113,1.685-1.729.143-3.55.271-5.312.4-2.558.181-5.2.368-7.688.6a36.973,36.973,0,0,0-5.058.987A29,29,0,0,1,4.587,101.773ZM59.244,33.21c8.843,0,17.185,6.952,23.889,12.539l1.142.95c2.875,2.386,5.857,4.621,8.741,6.782,1.4,1.047,2.837,2.126,4.26,3.219,1,.767,2.015,1.6,3.091,2.487a67.054,67.054,0,0,0,5.909,4.513,6.28,6.28,0,0,0,3.31,1.294c1.257,0,2.343-.725,4.141-1.927l.549-.366.817-.544a82.754,82.754,0,0,1,9.034-5.476,27.927,27.927,0,0,1,10.149-2.98c.679-.056,1.378-.084,2.077-.084a33.446,33.446,0,0,1,10.342,1.79,53.638,53.638,0,0,1,9.58,4.3,165.967,165.967,0,0,1-3-43,39.057,39.057,0,0,1,.549-4.054c.163-.949.332-1.929.451-2.946a8.331,8.331,0,0,1,.425-1.371c.371-1.031.792-2.2.575-2.628-.481-.949-2.223-1.07-3.686-1.07-.521,0-1.047.018-1.585.037l-.057,0c-.491.018-.954.036-1.352.036-.116,0-.22,0-.32,0-4.1-.128-8.267-.19-12.737-.19-4.439,0-9.1.062-14.263.19-22.751.56-42.7,1.541-61,3-5.426.433-10.9.856-16.192,1.264l-.044,0C33.01,9.818,21.608,10.7,10.274,11.7l-.234.021c-3.548.311-3.687.323-3.766,3.979-.012.544-.006,1.022,0,1.485s.013.96,0,1.515c-.06,2.357-.025,4.8.01,7.157.038,2.588.077,5.263-.01,7.843-.181,5.384-.623,10.892-1.05,16.219-.363,4.528-.738,9.207-.951,13.781,5.074-3.1,10-6.69,14.758-10.158,4.6-3.349,9.352-6.811,14.243-9.842,8.159-5.056,15.355-8.327,22-10A16.274,16.274,0,0,1,59.244,33.21Z" transform="translate(0 0)"/><path class="h" d="M-.012,1.943c0,2.788-.285,7.374,1,10,1.631,3.33,3.46,2.13,4-1,.309-1.793.576-7.412,0-9-.815-2.248-5-3.779-5,0" transform="translate(117.286 16.756)"/><path class="h" d="M13.167-.409c-2.618.092-10.229-.1-12,2-3.038,3.61,1.729,4.2,4,4,2.628-.234,11.24.107,13-2,2.944-3.525-2.942-4.075-5-4" transform="translate(109.107 20.108)"/><path class="h" d="M15.237,26.783h0A17.167,17.167,0,0,1,6.2,24.035,14.264,14.264,0,0,1,.285,17.12a11.559,11.559,0,0,1-.576-5.436A14.043,14.043,0,0,1,5.185,2.328,11.788,11.788,0,0,1,10.285.12a18.862,18.862,0,0,1,3.121-.257,17.864,17.864,0,0,1,8.371,2A11.353,11.353,0,0,1,27.285,8.12a13.168,13.168,0,0,1,.62,5.2A16.829,16.829,0,0,1,26.6,18.656a13.127,13.127,0,0,1-7.315,7.464A12.11,12.11,0,0,1,15.237,26.783ZM14.374,6.078c-3.427,0-7.65,1.732-9.089,5.042a5.177,5.177,0,0,0-.043,4.235A9.032,9.032,0,0,0,8.229,18.9a16.4,16.4,0,0,0,4.056,2.217,9.191,9.191,0,0,0,3.2.623,6.387,6.387,0,0,0,4.822-2.091,8.076,8.076,0,0,0,2.024-4.774,8.167,8.167,0,0,0-1.424-5.446A8.454,8.454,0,0,0,15.285,6.12C14.991,6.092,14.685,6.078,14.374,6.078Z" transform="translate(4.989 107.579)"/><path class="h" d="M46.372.392c-2.865.238-5.117,1.645-8,2-2.7.332-4.476-.263-7-1-3.051-.891-5.882-1.792-9-1-2.383.605-4.525,2.8-7,3-4.87.384-11.2-5.284-15,1-1.823,3.013,1.274,4.405,4,3,2.842-1.464,1.474-1.865,5-1,2.942.721,5.053,1.011,8,0a29.906,29.906,0,0,1,8-2,28.945,28.945,0,0,1,8,1c3.339.686,5.836.047,9-1a11.679,11.679,0,0,1,8,0c1.923.562,6.129,2.44,8,1,3.236-2.489-1.294-2.646-3-3-2.747-.569-6.149-2.233-9-2" transform="translate(38.902 115.307)"/><path class="h" d="M10.817,20.106h0a10.189,10.189,0,0,1-7.206-2.877A11.169,11.169,0,0,1,.316,10.723a9.656,9.656,0,0,1,1.3-6.433A10.421,10.421,0,0,1,7.846-.067,2.617,2.617,0,0,1,8.54-.148a15.507,15.507,0,0,1,6.306,2.081c1.508.966,2.817,2.928,4,6a9.687,9.687,0,0,1-.466,8.2,7.587,7.587,0,0,1-2.205,2.454,7.984,7.984,0,0,1-3.329,1.347A12.229,12.229,0,0,1,10.817,20.106ZM7.846,5.932A3.321,3.321,0,0,0,5.858,7.466a3.539,3.539,0,0,0-.311,2.258,6.906,6.906,0,0,0,1.847,3.543,4.812,4.812,0,0,0,3.3,1.668c.05,0,.1,0,.147,0,1.675-.082,2.6-.941,2.615-2.42a7.16,7.16,0,0,0-1.758-4.2,5.845,5.845,0,0,0-3.857-2.38h0Z" transform="translate(140.428 106.767)"/><path class="i" d="M1.083,84.857c-.869-2.1.244-3.115,1.982-3.6a36.745,36.745,0,0,1,.019-5.4c-.1-2.875.111-5.126,0-8-.264-6.848-.472-14.168-1-21-.5-6.531-1.964-12.419-2-19-.024-4.45-.9-15.977,3-19,6.7-3.909,4.109,9.614,4,12a139.992,139.992,0,0,0,1,21c.662,6.544-.745,13.455-1,20-.135,3.475.262,6.531,0,10a66.135,66.135,0,0,1-1.1,9c.957-.043,1.9-.027,2.691-.012.57.011,1.058.022,1.413.012,5.426-.164,10.575-.8,16-1,20.87-.785,42.134-.009,63-1,19.736-.938,39.249-.758,59-1,1.728.15,2.109,1.606,1,3-.815,1.023-3.468,1-5.4.982-.643-.007-1.207-.013-1.6.018-5.563.447-11.42.947-17,1-11.75.112-23.269.331-35,1-20.843,1.188-42.145,1.152-63,2-5.062.205-9.935.867-15,1-1.129.03-3.034.247-4.956.247C4.5,87.1,1.846,86.7,1.083,84.857Zm151-18c-.438-7.6-1.312-15.417-2-23-1.112-12.259-2.01-24.692-2-37,0-2.922,3.446-2.987,5-1,1.487,1.9.964,7.726,1,10,.12,7.493.328,14.54,1,22,.668,7.4,1.484,14.591,2,22,.239,3.424,2.825,18-1,20a2.506,2.506,0,0,1-1.149.325C151.37,80.181,152.208,69.013,152.083,66.857Zm-149-59c-1.251-.511-2.687-1.485-2-3C1.652,3.6,4.094,3.7,5.81,3.8c.512.031.959.06,1.273.055,2.039-.041,3.948,0,5.834.049,2.667.063,5.287.126,8.167-.049,11.159-.683,22.817-1.81,34-2,21.31-.364,42.681-1.8,64-2,6.314-.058,12.694.638,19,1,1.47.085,2.832.047,4.2.01,1.234-.033,2.472-.066,3.8-.01A21.765,21.765,0,0,0,148.523.7c1.708-.161,3.654-.321,4.559.158,5.566,2.945-5.621,4.023-7,4-5.785-.1-12.217-.859-18-1-21.275-.523-42.745.128-64,1-10.225.419-19.778,1.426-30,2-5.586.314-11.412.706-17,1-1.44.076-2.965.046-4.479.017-1.194-.023-2.383-.046-3.521-.017-1.041.027-2.663.276-4.071.276A5.325,5.325,0,0,1,3.083,7.857Z" transform="translate(2.191 144.842)"/><path class="h" d="M2.105,48.844c-1.359-.03-1.859-.353-2-2-.181-2.106,2.629-2.315,4-3,4.7-2.351,10.257-4.738,15-7,9.419-4.493,18.458-8.772,28-13l.946-.42Q39.6,20.566,31.1,17.844c-3.039-.978-23.777-6.177-23-9,.872-3.164,19.1,5.075,22,6,7.543,2.4,15.075,4.014,22.555,6.506,16.792-7.621,34-16.038,51.445-21.506,1.118-.35,1.254,1.033,1,2-.339,1.294-3.9,2.507-5,3-4.371,1.952-8.629,4.047-13,6-9.521,4.254-19.48,7.743-29,12l-.525.235c6.793,2.45,13.972,5.233,20.524,7.765,3.546,1.37,6.462,2.611,10,4,1.771.7,9.576,2.23,10,4,.6,2.5-7.751-.6-9-1-3.531-1.128-6.514-1.743-10-3-7.8-2.811-16.169-6.276-24-9q-1.025-.357-2.049-.71c-8.329,3.828-16.692,7.884-24.951,11.71-4.433,2.054-8.6,3.871-13,6-3.232,1.565-9.3,6-12.906,6Z" transform="translate(28.169 163.855)"/><path class="h" d="M13.532,24.88A13.841,13.841,0,0,1,4.92,21.8a8.366,8.366,0,0,1-3-4,9.826,9.826,0,0,1,0-4,2.1,2.1,0,0,1-.309.023A1.951,1.951,0,0,1-.08,12.8c-.3-3.688,3.207-6.941,5.323-8.551A22.94,22.94,0,0,1,14.92-.2a9.1,9.1,0,0,1,1.137-.072,9.934,9.934,0,0,1,7.174,3.308A13.64,13.64,0,0,1,26.92,12.8a12.132,12.132,0,0,1-3.715,8.239A14.3,14.3,0,0,1,14.92,24.8,12.188,12.188,0,0,1,13.532,24.88Zm-3.09-18.2A1.172,1.172,0,0,0,9.92,6.8a8.192,8.192,0,0,0-3,3C5.4,12.356,5.1,15.014,6.092,17.094,7.046,19.087,9.116,20.4,11.92,20.8a12.552,12.552,0,0,0,1.754.123,11.478,11.478,0,0,0,6.741-2.083A8.44,8.44,0,0,0,23.92,12.8a8.012,8.012,0,0,0-1.689-5.854A8.629,8.629,0,0,0,16.92,3.8c-.214-.019-.418-.029-.606-.029A2.761,2.761,0,0,0,13.683,5.2,4.553,4.553,0,0,1,11.92,6.8a.834.834,0,0,1-.371.086,1.859,1.859,0,0,1-.521-.1l-.014,0A2.01,2.01,0,0,0,10.443,6.676Z" transform="translate(6.354 236.897)"/><path class="h" d="M7.673.7c-2.383,1.263-5.6,3.6-7,6-1.476,2.533-.11,5.2,3,4,2.469-.951,4.367-4.031,7-5,2.324-.855,2.544-.851,5,0,2.531.877,5.264,2.215,8,2,3.439-.27,6.634-2.546,10-3,2.834-.382,5.286.561,8,1,3.149.509,5.054-.38,8-1,2-.422,5.538,1.643,7,1,3.287-1.445-.181-3.416-2-4-3.065-.983-5.085.185-8,1-3.165.885-4.975-.187-8-1-6.121-1.645-10.2,2.723-16,2-5.372-.67-9.369-5.981-15-3" transform="translate(38.602 243.996)"/><path class="h" d="M9.641,18.338h0c-3.455,0-6.415-1.058-8.12-2.9A6.514,6.514,0,0,1-.127,10.291,9.448,9.448,0,0,1,3.5,3.31,16.954,16.954,0,0,1,10.873.291,8.9,8.9,0,0,1,12.555.123a6.341,6.341,0,0,1,5.1,2.388,9.253,9.253,0,0,1,1.891,5.461,10.824,10.824,0,0,1-1.992,6.75,8.868,8.868,0,0,1-6.678,3.57C10.465,18.322,10.05,18.338,9.641,18.338Zm3.75-14.06c-3.323,0-6.353,1.553-7.517,3.014s-1.667,2.76-1.5,3.866a3.175,3.175,0,0,0,1.5,2.134,6.994,6.994,0,0,0,3.972,1.29,6.308,6.308,0,0,0,3.564-1.1,6.106,6.106,0,0,0,2.237-2.756c.874-2.211.228-4.556-1.773-6.432C13.72,4.282,13.557,4.277,13.391,4.277Z" transform="translate(133.401 237.408)"/></g><path class="l" d="M16.687,0C12.284.085,2.3,1.792.687,7c-1.227,3.954,2.046,3.439,4,2,2.643-1.945,4.726-3.408,8-4,12.474-2.256,24.646,5.977,37,7,4.68.388,10.532.516,15-1,3.182-1.079,3.631-3.641,0-4-3.085-.3-6.837,1.027-10,1-13.089-.112-25.1-8.246-38-8" transform="translate(270.313 3958)"/><g class="m" transform="translate(-107.464 3926.517)"><path class="h" d="M53.8.483c-8.424.095-17.592-.532-26,0-8,.507-16.135.45-24,2-2.233.44-5.97,2.761-3,5,2.087,1.574,10.508-.847,13-1,9.179-.564,17.808-.675,27-1,8.7-.308,17.294-.913,26-1,1.329-.013,3.676-.386,5,0,1.9.555,1.858.586,2,3,.258,4.374.087,9.622,0,14-.084,4.237-.015,7.761,0,12,.011,3.024-1.517,9.374,0,12,2.184,3.78,4.837-.488,5-3,.312-4.8,0-9.189,0-14,0-4.516.159-9.487,0-14-.115-3.26-.244-9.036-2-12-1.789-3.019-5.857-1.856-9-2-4.9-.225-9.094-.051-14,0" transform="translate(1.666 0)"/><path class="h" d="M1.464,2.566c.009,8.484-.725,16.526-1,25-.126,3.9-.986,8.175,0,12,.995,3.862,4.636,5.311,5,1,.737-8.73.426-18.2,1-27,.2-3.107,1.231-9.09,0-12-1.084-2.563-5-2.576-5,1" transform="translate(0 2.917)"/><path class="h" d="M78.2-.382c-14.63,1.937-30.266,1.7-45,2-7.069.146-13.93-.074-21,0-2.467.026-8.865-.387-11,1-3.4,2.208.75,3.951,3,4,13.952.306,28.051-.542,42-1,6.267-.206,12.749-.467,19-1a58.445,58.445,0,0,0,11-2c.8-.221,2.822.086,3-1,.11-.672.029-2.142-1-2" transform="translate(2.26 42.865)"/><path class="h" d="M18.3.7C14.231.725,1.981-1.263.3,2.7c-2.245,5.288,6.645,4.06,9,4,5.349-.137,10.649,0,16,0,5.25,0,10.751.125,16,0,1.521-.037,5.125-.169,6-2,.665-1.392.226-2.263-1-3-2.951-1.773-10.545-.84-14-1C27.825.5,22.776.7,18.3.7" transform="translate(1.166 54.781)"/><path class="h" d="M11,.558C8.681.7,3.086-.505,1,.558c-2.366,1.209-1.043,3.168,1,4,1.415.576,7.622-.333,9-1,1.436-.7,3.06-3.188,0-3" transform="translate(58.459 55.925)"/><path class="h" d="M2.034.178c-2.482.681-1.936,14.766-2,17-.175,6.12-1.033,14.106,1,20,1.3,3.757,4.424,2.956,4-1-.373-3.472-1.723-7.505-2-11a157.988,157.988,0,0,1,0-24c.252.46,2.446,5.318,3,5-.167.1-2.99-6.266-4-6" transform="translate(92.43 6.305)"/><path class="h" d="M31.492.436c-5.023.074-9.979-.139-15,0-3.992.111-10.339-.679-14,1-4.36,2-2.095,6.906,2,7,3.622.084,7.345-.875,11-1,9.873-.338,20.122-.916,30-1,8.933-.077,18.145,1.342,27,0,1.313,11.663-2.208,23.2-1,35,.187,1.831-.332,4.583,2,5,2.943.527,2.888-2.913,3-5,.319-5.959.564-12.033,1-18a79.433,79.433,0,0,0,0-16c-.827-6.816-4.227-6.717-10-7-12.193-.6-23.793-.179-36,0" transform="translate(90.972 1.047)"/><path class="h" d="M8.984.091c-2.559.064-6.36-.454-8,2-1.706,2.553-.481,4.476,2,5,2.937.62,6.952.009,10,0,3.174-.009,6.826-.013,10,0,13.608.053,27.4.563,41,0,1.9-.078,6.686-.178,8-2a2.541,2.541,0,0,0-1-4c-2.52-1.35-7.2-.893-10-1-3.462-.132-7.536.054-11,0-13.672-.211-27.33-.338-41,0" transform="translate(96.48 42.392)"/><path class="h" d="M19.52.142c-5.093.087-10.958-.772-16,0-4.433.679-4.772,5.5,0,6,4.386.461,9.593-.717,14-1,1.565-.1,3.25.73,4-1a2.784,2.784,0,0,0-2-4" transform="translate(97.944 54.34)"/><path class="h" d="M12.2.045c-2.718.068-10.654-1.1-12,2-2.241,5.169,8.938,3.076,11,3,2.6-.1,12,2.137,12-2,0-4.057-8.511-3.062-11-3" transform="translate(143.262 54.437)"/><path class="i" d="M-.281,3.212c.006,9.4.142,18.621,1,28,.355,3.879-.247,11.711,2,15,1.595,2.334,4.129,1.8,5-1,.582-1.874.1-5,0-7-.1-1.924-.911-4.076-1-6-.229-4.957-.068-10.04,0-15,.058-4.254.966-9.908,0-14-.9-3.813-7-4.7-7,0" transform="translate(0.745 77.271)"/><path class="i" d="M92.962.6c-16.313.409-32.7.192-49,1-8.038.4-16,1.128-24,2-3.929.429-8.078.517-12,1-1.184.146-10.7.26-7,4,1.615,1.633,6.966.241,9,0,3.938-.465,7.056-.583,11-1,7.5-.794,15.464-1.583,23-2,17.749-.983,35.233-1.345,53-2,4.806-.177,10.192-.189,15,0,1.262.05,10.028.426,6-3-1.9-1.621-8.62.049-11,0-4.62-.1-9.382-.116-14,0" transform="translate(2.501 71.884)"/><path class="i" d="M-.381,56.409c-.379-5.344,13.166-5.643,17-6,16.462-1.532,33.488-1.23,50-1,7.985.112,16.022.489,24,0s16.088-.142,24-1c-1.128-4.009-.7-8.836-1-13-.734-10.364-.527-20.624-1-31-.208-4.571,6.153-5.7,8-2,1.865,3.738-.121,10.857,0,15,.279,9.594,2.879,20.511,1,30-.691,3.486-4.064,5.307-6.006,3.009-.691,1-2.436.99-3.856.977-.419,0-.811-.007-1.138.015-4.378.3-8.662,1.349-13,2a209.294,209.294,0,0,1-26,2c-17.281.428-34.744-.184-52,1-3.822.263-7.241,1.281-11,2a28.919,28.919,0,0,1-5.343.856C1.381,59.265-.222,58.644-.381,56.409Z" transform="translate(4.844 71.073)"/><path class="g" d="M2.922.781c-2.2.3-3.984,1.608-3,4,1.239,3.012,5.562,2.191,8,2,7.75-.607,15.344.915,23,0,2.091-.25,4.877-1.19,3-4-1.411-2.112-5.814-1.8-8-2a123.8,123.8,0,0,0-23,0" transform="translate(127.541 77.702)"/><path class="g" d="M11.148.087c-3.006.2-9.733-.42-11,3-2.272,6.135,7.291,4.349,10,4,3.148-.405,10.324,1.052,12-2,3-5.458-8.364-5.182-11-5" transform="translate(132.316 91.396)"/><path class="g" d="M1.311.84a4.74,4.74,0,0,0,0,6c1.748,1.747,5.7.872,8,1,3.2.179,12.409,1.773,14-2,2.147-5.091-6.259-4.711-9-5-3.168-.334-10.374-2.627-13,0" transform="translate(135.153 103.643)"/><path class="h" d="M-.437,3.768c0,5.473,9,5.473,9,0,0-5.443-9-5.526-9,0" transform="translate(23.901 13.715)"/><path class="h" d="M.349,4.292a4.5,4.5,0,1,0,9,0,4.5,4.5,0,1,0-9,0" transform="translate(40.115 13.191)"/><path class="h" d="M2.277.357c-4.733,1.307-.2,5.084,2,6,3.493,1.457,7.507,2.184,11,0,1.39-.869,3.019-1.314,2-3-1.085-1.8-2.348-1.166-4-1a14.153,14.153,0,0,1-6-1c-1.509-.5-3.355-1.453-5-1" transform="translate(28.187 26.126)"/><path class="h" d="M.31,3.084a2.514,2.514,0,1,0,5,0,2.514,2.514,0,1,0-5,0" transform="translate(116.154 15.399)"/><path class="h" d="M-.4,2.835c0,4.113,7,4.113,7,0s-7-4.113-7,0" transform="translate(128.866 15.648)"/><path class="h" d="M13.717,0C10.362.436.259,1.869-.283,6c-.837,6.379,10.574.5,13,0,3.09-.638,4.915-.124,8,0,1.694.068,4.178.58,4-2-.291-4.237-8.068-4.376-11-4" transform="translate(114.747 27.479)"/><path class="i" d="M4.814.082c-2.431.649-5.673,4.428-4,7,2.743,4.219,3.852-1.377,5-2,2.089-1.135,3.817,2.175,6,0,3.444-3.431-4.832-5.581-7-5" transform="translate(39.65 86.401)"/><path class="i" d="M1.076.3c-4.612,2.7,3.369,8.275,6,9,3.971,1.093,12.059-.149,13-5,.375-1.931-.869-4.346-3-4-1.754.285-3.375,3.212-5,4-2.193,1.064-4.136.6-6-1-1.518-1.3-2.295-4.578-5-3" transform="translate(48.388 100.179)"/><path class="g" d="M40.3.321c-4.12.879-8.86.174-13,1-4.222.843-6.078,2.607-10,1-.185-.078-.816.078-1,0-3.036-1.307-5.822-2.084-9,0-1.881,1.233-7.688,5.4-7,8,1.491,5.643,7.362-3.138,9-4,3.124-1.645,5.784.407,9,1,3.852.71,6.372-1.19,10-2,4.244-.948,9.683-1.493,14-2,1.706-.2,7.417,1.123,8-1,1-3.647-8.381-2.344-10-2" transform="translate(13.163 140.162)"/><path class="g" d="M13.4,20.007h0c-1.869,0-3.488-.069-4.95-.21l-.427-.041H8.019c-3.263-.31-5.621-.534-6.568-3.959A44.346,44.346,0,0,1,.21,8.908C-.008,6.5.031,3.483,1.451,2.8a1.958,1.958,0,0,1,.864-.169,6.708,6.708,0,0,1,.981.1l.051.008a6.061,6.061,0,0,0,.837.087A1.486,1.486,0,0,0,4.451,2.8a20.789,20.789,0,0,0,3.142-.932A19.427,19.427,0,0,1,11.451.8C15.745.216,20.6.007,24.875-.178L25.451-.2c.565-.024,1.317-.051,2.125-.051,5.476,0,8.706,1.325,9.875,4.051.614,1.431.656,3.784.119,6.623A23.287,23.287,0,0,1,35.451,16.8,5.613,5.613,0,0,1,32.362,19.4,12.032,12.032,0,0,1,28.175,20c-.948,0-1.931-.054-2.8-.1l-.058,0c-.918-.051-1.786-.1-2.616-.1l-.252,0c-1.3.016-2.647.059-3.947.1C16.831,19.952,15.1,20.007,13.4,20.007ZM4.453,4.8A28.115,28.115,0,0,1,4.572,7.68c.038,2.628.091,6.227.88,7.117s4.032.945,5.967.973c.446.007.8.012,1.033.026,1.663.1,3.317.291,4.916.472,1.977.224,4.021.455,6.084.528.528.019,1.22.092,1.953.169a34.43,34.43,0,0,0,3.49.249,5.941,5.941,0,0,0,2.557-.419c.991-.492,2.064-2.438,2.8-5.081.7-2.5,1.03-5.611.2-6.919A4.18,4.18,0,0,0,31.9,3.192,15.686,15.686,0,0,0,27.88,2.76a62.436,62.436,0,0,0-8.3.76c-.851.119-1.586.221-2.134.277-.94.1-2.122.3-3.375.512a44.3,44.3,0,0,1-6.965.825A8.717,8.717,0,0,1,4.453,4.8Z" transform="translate(77.013 136.686)"/><path class="h" d="M25.549,24.787A149.268,149.268,0,0,1,9.061,23.755c-2.6-.289-4.466-.667-5.751-1.654-1.306-1-2-2.652-2.249-5.346-.069-.743-.222-1.672-.4-2.747A39.8,39.8,0,0,1-.06,7.03C0,4.353.693,2.627,2.061,1.754,4.534.176,9.486-.017,13.1-.158c.709-.028,1.377-.054,1.959-.088.4-.021.819-.032,1.244-.032a53.94,53.94,0,0,1,6.455.526c1.735.211,3.528.43,5.3.505,2.875.122,5.123.411,6.746,1.421S37.429,4.9,38.061,7.754a5.429,5.429,0,0,0,.454,1.17,4.264,4.264,0,0,1,.546,1.83,20.6,20.6,0,0,1-.635,4.208c-.139.64-.27,1.244-.365,1.793-.5,2.866-1.574,4.879-3.286,6.154-1.586,1.181-3.719,1.768-6.713,1.846C27.247,24.776,26.4,24.787,25.549,24.787Zm1.512-7.032c-.947.173-1.914.325-2.85.472-1.035.163-2.1.331-3.15.528-.187.036-.346.272-.5.5s-.313.465-.5.5l.8.061h.005c.744.059,1.386.11,1.991.11A4.533,4.533,0,0,0,27.061,17.754Zm-14.74-.049a.822.822,0,0,0-.26.049c-.138.045-.322.276-.5.5s-.362.455-.5.5a5.167,5.167,0,0,0,.621.032c.287,0,.6-.014.9-.028H12.6c.3-.014.614-.029.9-.029a5.273,5.273,0,0,1,.565.026,1.493,1.493,0,0,0-.466-.408c-.267-.182-.543-.37-.534-.592a.83.83,0,0,1-.261.049.69.69,0,0,1-.239-.049A.7.7,0,0,0,12.321,17.705Zm-4.909-3.25a.383.383,0,0,0-.287.088.276.276,0,0,0-.065.21.663.663,0,0,0,.14.522.592.592,0,0,0,.453.175,2.352,2.352,0,0,0,1.408-.7l-.011,0H9a3.616,3.616,0,0,1-.772-.146l-.018,0A3.65,3.65,0,0,0,7.412,14.456Zm24.649-8.7c.848,1.232,1.258,1.328,1.364,1.328a.134.134,0,0,0,.142-.14C33.594,6.621,33.1,5.93,32.061,5.755ZM23.539,6.6a.644.644,0,0,0-.478.153c-.145.114-.211.194-.2.236.009.025.045.037.107.037a5.141,5.141,0,0,0,1.09-.273A.832.832,0,0,0,23.539,6.6Z" transform="translate(121.403 133.728)"/></g><g class="n" transform="translate(-116.687 4140.302)"><path class="h" d="M2.376,47.7C.193,46.71.4,45.723,1.452,44.975.66,43.824.5,41.7.376,40.7c-.489-3.941.007-7.025,0-11-.014-7.787-.154-16.463,2-24-.862-.377-2-1.2-2-2C.385.017,10.786.289,17.158.56c1.881.08,3.41.159,4.218.139,4.359-.114,9.642-.023,14,0,.981,0,2.006-.071,3.044-.147A20.179,20.179,0,0,1,44.376.7c5.584,1.3,5.885,10.37,6,15a237.2,237.2,0,0,1-1,25c-.232,2.861-2.625,6.944-5,3-1.324-2.2-1-7.571-1-10-.006-8.635,2.294-17.408,1-26-.425-2.817-1.135-3.06-4-3-1.137.023-2.068.012-3,0s-1.864-.024-3,0c-4.629.1-9.373.831-14,1-1.757.065-8.076,1-13,1,0,.015,0,.013,0,.006.065,3.329-1.779,7.493-2,10.995-.535,8.425-.212,16.617-1,25-.035.369-.034.765-.042,1.146A7.747,7.747,0,0,1,5.377,43.7c2.12-.135,4.235-.085,6.353-.037,1.546.036,3.094.072,4.647.037,7.529-.175,14.513-.119,22-1,1.522-.2,2.683,1.989,2,3-.766,1.136-3.865.832-5,1a97.632,97.632,0,0,1-10,1c-1.894.084-3.624.049-5.368.014-1.5-.03-3-.059-4.632-.014-2,.055-5.751.587-8.893.587A10.763,10.763,0,0,1,2.376,47.7Zm5-41c0-.006,0-.011,0-.011S7.376,6.689,7.376,6.7Z" transform="translate(39.311)"/><path class="h" d="M46.372,47.522c-3.649.9-10.19.693-14.513.488-1.868-.088-3.322-.177-3.949-.176-3.82,0-24.966,2.42-25-2a1.425,1.425,0,0,1,.214-.766A6.023,6.023,0,0,1,1.91,42.834c-1.188-3.843-.912-8.014-1-12-.19-8.606-.945-17.392-1-26A3.347,3.347,0,0,1,.067,3.74,2.593,2.593,0,0,1,.91,1.834C3.515-.4,11.6.009,14.91-.166c3.071-.163,6.026-.109,9.015-.054,1.642.03,3.295.059,4.984.054,5.045-.026,9.957-.156,15,0,1.87.057,14.815.846,9,4a5.687,5.687,0,0,1-1.3.493,16.158,16.158,0,0,1,.3,3.506c-.248,4.536.2,9.463,0,14-.225,5.065-.826,9.933-1,15-.093,2.678,1.12,9.066-1,11a2.694,2.694,0,0,1-1.764.849A2.238,2.238,0,0,1,46.372,47.522ZM37.91,43.834c.61.024,1.673-.059,2.907-.141,1.31-.088,2.811-.176,4.169-.135-.04-.273-.065-.519-.076-.724-.23-4.561.852-9.438,1-14,.148-4.6-.177-8.4,0-13,.094-2.417-.76-7.762-.153-11.287-2.9-.227-5.872-.712-7.847-.713-4.864,0-10.136.9-15,1-1.981.039-3.858-.049-5.709-.139a50.085,50.085,0,0,0-9.292.139,11.345,11.345,0,0,0-1.811.5c1.027,3.188-.185,8.255-.188,11.5-.01,8.623.806,17.423,1,26q.005.233,0,.448c4.29-.86,11.067-.711,15.374-.562,1.688.058,3,.116,3.628.114h.12C30.206,42.833,33.724,43.667,37.91,43.834Z" transform="translate(106.777 0.864)"/><path class="g" d="M2.2.36c-3.127,1.827-2.084,9.472-1,12,1.781,4.156,6.1,6.843,10,9,7.882,4.36,19.039,3.44,25,11,.062.078,1.531,2.642,2,0,.385-2.168-3.509-5.913-5-7-4.239-3.09-9.1-4.456-14-6-5.229-1.646-10.808-4.609-13-10-.776-1.909.748-11.787-4-9" transform="translate(59.489 47.338)"/><path class="g" d="M34.557.463c-2.866.79-1,4.025-1,6a11.4,11.4,0,0,1-2,7c-3.85,4.986-11.348,6.571-17,8-4.1,1.039-14.616,2.45-15,8-.429,6.2,8.268-.691,9-1,8.1-2.972,18.746-3.458,25-10,2.582-2.7,4.758-6.28,5-10,.137-2.094-.315-9.007-4-8" transform="translate(98.129 51.235)"/><path class="h" d="M23.058,41.088h0a26.811,26.811,0,0,1-8.144-1.307,25.1,25.1,0,0,1-7.358-3.763,19.233,19.233,0,0,1-5.34-5.984,16.662,16.662,0,0,1-.231-15.722,20.706,20.706,0,0,1,4.9-6.069A36.018,36.018,0,0,1,21.127,1.065,20.19,20.19,0,0,1,26.264.385C36,.385,43.928,7.821,45.127,18.065a20.282,20.282,0,0,1-.721,8.367,19.425,19.425,0,0,1-3.8,6.912,21.307,21.307,0,0,1-7.176,5.451,24.1,24.1,0,0,1-9.3,2.27C23.774,41.08,23.414,41.088,23.058,41.088ZM7.126,14.064c-2.466,4.258-2.6,8.543-.377,12.393a17.3,17.3,0,0,0,7.314,6.566,22.817,22.817,0,0,0,10.118,2.464,16.471,16.471,0,0,0,6.945-1.422A14.665,14.665,0,0,0,38.5,26.423,16.821,16.821,0,0,0,39.52,16.276a13.23,13.23,0,0,0-4.006-7.169A11.532,11.532,0,0,0,31.864,6.9a13.712,13.712,0,0,0-4.737-.836A1.684,1.684,0,0,1,27.4,7.421a2.581,2.581,0,0,1-1.278,1.644,1.775,1.775,0,0,1-.858.293c-.54,0-.779-.5-1.032-1.035s-.518-1.092-1.11-1.259A1.962,1.962,0,0,0,22.6,7c-1.444,0-3.419,1.3-4.468,2.068a19.988,19.988,0,0,0-1.8,1.69c-2.007,2.016-4.755,4.778-6.968,4.778A2.537,2.537,0,0,1,7.126,14.064Z" transform="translate(73.56 84.634)"/><path class="h" d="M.4,2.217a2,2,0,0,0,4,0,2,2,0,0,0-4,0" transform="translate(89.289 100.481)"/><path class="h" d="M.084,2.159c0,3.224,5,3.224,5,0,0-3.188-5-3.324-5,0" transform="translate(96.603 99.539)"/><path class="h" d="M1.2.439c-4.166,2.45,7.53,6.975,8,2C9.4.292,7.586.6,6.2.439c-1.326-.151-3.742-.732-5,0" transform="translate(90.486 109.259)"/><path class="g" d="M.127,1.917c.181,6.259-.187,12.828,1,19,.226,1.172.074,5.129,1,6,2.279,2.142,2.911-1.427,3-3,.316-5.635-.869-11.353-1-17-.028-1.215.574-3.823,0-5-.91-1.868-4.089-2.981-4,0" transform="translate(89.56 124.782)"/><path class="g" d="M60.5.588c-9.133,10.251-21.33,9.1-34,10-6.694.474-13.613,1.67-19,6a24.77,24.77,0,0,0-6,8c-.634,1.257-3.52,7.721,1,6,1.6-.61,2.963-4.581,4-6a23.305,23.305,0,0,1,8-7c5.847-2.8,12.66-2.645,19-3,6.627-.371,13.908-.118,20-3a33.72,33.72,0,0,0,8-6,5.536,5.536,0,0,0,2-3c.151-1.361-1.294-3.91-3-2" transform="translate(24.189 121.111)"/><path class="h" d="M31.761,1.062c-8.579.287-16.433.458-25,1-1.756.111-8.491-.6-7,3,1.195,2.884,8.639,1.14,11,1,8.927-.53,18.092-1.2,27-2,2-.18,10.735.547,7-3-1.777-1.688-10.545-.084-13,0" transform="translate(6.926 152.637)"/><path class="h" d="M1.687,1.111c-2.7,3.552-1.2,11.73-1,16,.2,4.138-.4,12.358,5,13-1.715-.225.509-.026,1,0,1.1.059,2.9-.012,4,0,2.537.028,4.464.051,7,0,5.745-.115,12.262-.682,18-1,2.412-.134,15.482.506,16-2,.662-3.2-12.754-2.1-15-2-5.469.251-10.526.928-16,1-2.713.036-5.287.053-8,0-1.12-.022-5.319-.252-6-1-.581-.636-.987-6.105-1-7-.04-2.917.9-6.084,1-9,.07-1.963.865-5.156,0-7a3.236,3.236,0,0,0-5-1" transform="translate(0 156.587)"/><path class="h" d="M-.207,3.518c.157,6.5.465,12.646,2,19,.511,2.115.875,6.905,3,8,2.23,1.149,4.854-.791,5-3,.184-2.778-1.7-6.15-2-9-.356-3.325-.878-6.659-1-10-.092-2.513,1.4-6.379-1-8-2.152-1.456-6.07.19-6,3" transform="translate(45.894 154.18)"/><path class="h" d="M3.595,31.464c-2.044-.085-4.518-.358-4-3,.459-2.344,3.077-2.8,5-3a177.446,177.446,0,0,1,18-1c12.231.042,23.77.064,36,0a2.849,2.849,0,0,1,1.3.512,11.691,11.691,0,0,1-.3-2.512c-.322-3.026-.427-5.975-1-9-.458-2.42-.758-6.477-3-8-1.829-1.242-5.432-1.145-8.357-1.047-.991.032-1.9.066-2.643.047a193.433,193.433,0,0,0-23,1c-3.569.325-7.471.359-11,1-1.965.357-7.43,2.775-9,1-3.778-4.273,12.746-5.767,15-6,8.014-.827,15.942-.923,24-1,5.442-.042,15-.464,19,4,2.4,2.681,3.062,6.655,4,10,.72,2.569,2.388,7.347,1,10-.628,1.2-1.465,2.426-3,2a3.546,3.546,0,0,1-.368-.123,2.332,2.332,0,0,1,.368,2.124c-.917,2.128-5.167,1.847-7,2a100.489,100.489,0,0,1-11.394.105c-2.174-.063-4.364-.125-6.606-.105-2.911.025-5.869.012-8.829,0-3.074-.014-6.149-.028-9.171,0-4.548.045-9.279,1.023-13.82,1.023Q4.183,31.487,3.595,31.464Z" transform="translate(65.092 152.234)"/><path class="g" d="M60.008,31.753h0c-1.559,0-3.312-2.878-4.471-4.782a16.474,16.474,0,0,0-.9-1.391l-.41-.515c-1.7-2.131-2.816-3.54-5.59-4.485-4.574-1.56-9.879-1.92-15.009-2.269-2.8-.19-5.453-.37-7.991-.732-6.056-.863-12.93-2.132-18-5a21.984,21.984,0,0,1-4.4-3.842C.713,5.932.173,4.084.165,3.027A2.694,2.694,0,0,1,1.636.58,2.8,2.8,0,0,1,3.027.14c1.427,0,2.2,1.63,2.891,3.068A13.006,13.006,0,0,0,6.636,4.58a10.984,10.984,0,0,0,3,3.215,13.411,13.411,0,0,0,4,1.785A82.486,82.486,0,0,0,26.012,11.8c1.863.238,3.789.484,5.624.779,1.448.232,2.948.435,4.4.631,4.939.667,10.046,1.357,14.6,3.369a28.668,28.668,0,0,1,6.209,5.371c4,4.334,4.7,6.706,4.752,7.735a1.906,1.906,0,0,1-.961,1.9A1.236,1.236,0,0,1,60.008,31.753Z" transform="translate(111.051 117.118)"/><path class="h" d="M6.91,32.357c-2.1-.2-4.542-.339-4-3a3.618,3.618,0,0,1,.178-.606C1.674,25.834,1.039,20.407.91,19.356a89.008,89.008,0,0,1-1-13,2.911,2.911,0,0,1,4.557-2.35c2.377-1.267,7-1.4,9.443-1.65,3.735-.377,7.255-.776,11-1,8.744-.522,17.24-.805,26-1,2.621-.054,6.9-.934,9,1,2.387,2.2,2.284,8.056,3,11a75.538,75.538,0,0,1,2,10,13.268,13.268,0,0,1,.128,2.97c1.479-.311,2,.644,1.871,2.029-.2,2.146-3.261,2.661-5,3-5.783,1.129-12.137.834-18,1-9.347.263-18.839,1.39-28.235,1.39C12.742,32.747,9.817,32.637,6.91,32.357Zm9.9-5.969c3.328.05,6.637.1,10.1-.031,6.287-.241,12.708-.928,19-1,2.234-.026,4.563.053,6.917.132,2.61.088,5.25.175,7.822.121-.824-2.907-.191-7.469-.738-10.253-.573-2.915-.828-6.263-2-9-1.319-3.08-2.565-2.234-6-2-3.533.239-7.472.709-11,1-7.755.637-15.238.459-23,1C13.822,6.641,10.067,7.9,6.071,8.339c0,1.442-.184,2.928-.161,4.018.066,3.024.737,5.987,1,9,.105,1.212.571,3.249.629,5.051.476-.033.942-.044,1.371-.051q1.322-.023,2.617-.022C13.309,26.335,15.061,26.361,16.807,26.388Z" transform="translate(135.777 150.342)"/></g><g transform="translate(-198 2490)"><g transform="translate(-265 1668)"><path class="o" d="M0,0,36.631,126.227,53.86,221H71.153L53.891,0Z" transform="translate(44 0)"/><path class="p" d="M24.974,0c2.556,65.574,1.548,101.34.976,107.3S22.13,153.156,0,223H17.986c29.308-67,39.539-106.9,42.9-115.7S74.176,62.734,88.67,0Z" transform="translate(2.564 0)"/><path class="i" d="M0,0Q14.292,65.153,49.439,208H74.732C76.6,110.254,68.653,45.92,54.891,0Z" transform="translate(43.214 0)"/><path class="q" d="M24.079,0C26.583,65.574,20.1,130.177,0,209.021H26.986C56.348,143.018,77.393,78.734,91.775,0Z" transform="translate(3.331 0)"/><g transform="translate(0 199)"><path class="r" d="M0,18,.939,2.856a1,1,0,0,1,.907-.934L22.826,0l35.98,13.357a2,2,0,0,1,1.228,2.421L58.553,21H1.985Z" transform="translate(0 19)"/></g><g transform="translate(94 199)"><path class="r" d="M0,18,.939,2.856a1,1,0,0,1,.907-.934L22.826,0l35.98,13.357a2,2,0,0,1,1.228,2.421L58.553,21H1.985Z" transform="translate(0 19)"/></g><path class="s" d="M0,0Q14.292,65.153,49.439,208H74.732C76.6,110.254,68.653,45.92,54.891,0Z" transform="translate(43.214 0)"/></g><g transform="translate(-302 1393)"><g transform="translate(76.408 45)"><path class="p" d="M0,105,11.8,49.609C5.221,41.829.765,32.294,1.509,21.612,3.655-9.17,46.213-2.4,54.49,13.138s7.3,54.944-3.4,57.72c-4.267,1.107-13.356-1.605-22.607-7.219L34.286,105Z" transform="translate(-0.408 0)"/></g><path class="r" d="M14.708,66.768C10.455,47.439-1.659,34.264.191,25.625A14.527,14.527,0,0,1,10.054,14.88S14.2-2.247,36.784.31,73.157,12.451,67.2,33.537c-5.473,0-12.079-2.022-21.215,1.442-4.348,1.649-6.22,10.226-6.22,10.226H35.641s-6.01-10.179-11.852-7.481-2.656,13.107-2.656,13.107L19.1,66.768Z" transform="translate(70.588 34.637)"/></g><g transform="translate(-354 1523)"><path class="p" d="M36.4,157.133,0,140.112l8.126-22.65L44.883,147.9q14.955,4.551,24.988,11.323c1.58,1.623,3.49,4.911-3.064,4.342s-13.468-.834-14.371,1.688,3.061,5.534,1.233,8.935a.85.85,0,0,1-.8.485Q49.641,174.673,36.4,157.133ZM11.985,30.622,55.664,15.835Q67.885,5.106,78.721.146c2.1-.446,5.579-.187,1.232,5.373s-8.7,11.627-7.455,13.958,5.762.574,7.071,4.266q1.308,3.693-22.471,5.29L23.137,51.571Z" transform="translate(208.638 -27.58)"/><path class="t" d="M15.62.153C45.848,35.627,82.158,59.3,131.372,80.837l-10.119,23.627c-50.339-6.839-77.291-11.882-99.312-47.15C16.414,48.462,6.122,18.282.024,2.586Z" transform="matrix(0.966, 0.259, -0.259, 0.966, 144.622, 3.719)"/><path class="b" d="M0,148.139H88.73S58.582,44.452,57.929,5.811C57.906,4.5,55.755,2.183,54.8,2.486,44.365,5.811,32.464,0,32.464,0,11.428,38.15,4.154,85.121,0,148.139Z" transform="translate(103.711)"/><path class="u" d="M1.638,191.809c-7.514-56.946,12.235-135.9,30.543-175.726.7-1.522,2.188-4.388,5.694-4.388H51.622l.018.061c4.632.042,9.788.251,15.412.459C92.313,13.154,127.006,14.09,165.93,0l4.7,26.474C134.66,52.561,98.24,72.769,66.326,69.9c13.857,67.033,13.218,121.91-17.376,121.91Z" transform="translate(92.106 -11.695)"/></g></g></g></svg>