<svg xmlns="http://www.w3.org/2000/svg" xmlns:xlink="http://www.w3.org/1999/xlink" width="1007" height="757" viewBox="0 0 1007 757"><defs><style>.a,.d{fill:#fff;}.a{stroke:#707070;}.b{fill:none;}.c{fill:#f2f2f2;}.e{fill:#5289e1;}.f{fill:#dde3e9;}.g{fill:#afb9c5;}.h{fill:#c5cfd6;}.i{fill:#396ec1;}.j{fill:#98bff7;}.k{clip-path:url(#a);}.l{clip-path:url(#b);}.m{fill:#d3d3d3;}.n,.q{fill:#c1dee2;}.o{fill:#89c5cc;}.p{fill:#69a1ac;}.q{opacity:0.5;}.r{opacity:0.857;}.s{fill:#849de4;}.t{fill:#997659;}.u{fill:#b28b67;}.v{fill:#797a8b;}.w{fill:#191847;}.x{fill:#5f5d77;}.y{fill:#643443;}.z{fill:#6c213b;}.aa{fill:#3466c7;}.ab{fill:#335cce;}.ac{fill:#4c81e8;}.ad{fill:#93bbfc;}</style><clipPath id="a"><rect class="b" width="1007" height="757"/></clipPath><clipPath id="b"><rect class="a" width="1007" height="757" transform="translate(320 3915)"/></clipPath></defs><g transform="translate(194 -2976)"><g transform="translate(582 3141)"><rect class="c" width="155" height="160" rx="8"/><rect class="d" width="32" height="37" rx="8" transform="translate(115 20)"/><g transform="translate(119.699 26.805)"><circle class="e" cx="7.5" cy="7.5" r="7.5" transform="translate(4.301 0.195)"/><rect class="f" width="23" height="3" rx="1.5" transform="translate(0.301 16.195)"/><rect class="f" width="16" height="3" rx="1.5" transform="translate(3.301 21.195)"/></g><path class="e" d="M8,0H147a8,8,0,0,1,8,8v4H0V8A8,8,0,0,1,8,0Z"/><g transform="translate(4.159 4.622)"><ellipse class="c" cx="2" cy="1.5" rx="2" ry="1.5" transform="translate(-0.159 0.378)"/><circle class="c" cx="1.5" cy="1.5" r="1.5" transform="translate(5.841 0.378)"/><ellipse class="c" cx="2" cy="1.5" rx="2" ry="1.5" transform="translate(10.841 0.378)"/></g><g transform="translate(115.077 61.005)"><rect class="d" width="32" height="90" rx="8" transform="translate(-0.077 -0.005)"/><g transform="translate(8.319 8.319)"><rect class="f" width="16" height="12" rx="4" transform="translate(-0.396 -0.324)"/><rect class="g" width="16" height="12" rx="4" transform="translate(-0.396 15.676)"/><rect class="f" width="16" height="12" rx="4" transform="translate(-0.396 30.676)"/><rect class="f" width="16" height="11" rx="4" transform="translate(-0.396 61.676)"/><rect class="h" width="16" height="11" rx="4" transform="translate(-0.396 46.676)"/></g></g><g transform="translate(7.395 20.335)"><rect class="d" width="104" height="22" rx="4" transform="translate(-0.395 -0.335)"/><g transform="translate(4.159 6.516)"><rect class="e" width="77.18" height="3.258" rx="1.629"/><rect class="e" width="51.806" height="3.258" rx="1.629" transform="translate(0 5.43)"/></g><g transform="translate(89.637 7.626)"><circle class="f" cx="3.235" cy="3.235" r="3.235"/><circle class="c" cx="1.386" cy="1.386" r="1.386" transform="translate(1.849 1.849)"/></g><g transform="translate(0 25.419)"><rect class="d" width="104" height="18" rx="4" transform="translate(-0.395 0.246)"/><g transform="translate(4.159 5.407)"><rect class="i" width="77.18" height="2.704" rx="1.352"/><rect class="i" width="51.806" height="2.704" rx="1.352" transform="translate(0 4.506)"/></g><g transform="translate(89.637 5.777)"><circle class="f" cx="3.235" cy="3.235" r="3.235"/><circle class="c" cx="1.386" cy="1.386" r="1.386" transform="translate(1.849 1.849)"/></g></g><g transform="translate(0 47.14)"><rect class="d" width="104" height="18" rx="4" transform="translate(-0.395 -0.475)"/><g transform="translate(4.159 5.407)"><rect class="e" width="77.18" height="2.704" rx="1.352"/><rect class="e" width="51.806" height="2.704" rx="1.352" transform="translate(0 4.506)"/></g><g transform="translate(89.637 5.777)"><circle class="f" cx="3.235" cy="3.235" r="3.235"/><circle class="g" cx="1.386" cy="1.386" r="1.386" transform="translate(1.849 1.849)"/></g></g><g transform="translate(0 112.304)"><rect class="d" width="104" height="18" rx="4" transform="translate(-0.395 0.361)"/><g transform="translate(4.159 5.407)"><rect class="f" width="77.18" height="2.704" rx="1.352"/><rect class="f" width="51.806" height="2.704" rx="1.352" transform="translate(0 4.506)"/></g><g transform="translate(89.637 5.777)"><circle class="f" cx="3.235" cy="3.235" r="3.235"/><circle class="c" cx="1.386" cy="1.386" r="1.386" transform="translate(1.849 1.849)"/></g></g><g transform="translate(0 90.583)"><rect class="d" width="104" height="18" rx="4" transform="translate(-0.395 0.082)"/><g transform="translate(4.159 5.407)"><rect class="f" width="77.18" height="2.704" rx="1.352"/><rect class="f" width="51.806" height="2.704" rx="1.352" transform="translate(0 4.506)"/></g><g transform="translate(89.637 5.777)"><circle class="f" cx="3.235" cy="3.235" r="3.235"/><circle class="c" cx="1.386" cy="1.386" r="1.386" transform="translate(1.849 1.849)"/></g></g><g transform="translate(0 68.861)"><rect class="d" width="104" height="18" rx="4" transform="translate(-0.395 -0.196)"/><g transform="translate(4.159 5.407)"><rect class="j" width="77.18" height="2.704" rx="1.352"/><rect class="j" width="51.806" height="2.704" rx="1.352" transform="translate(0 4.506)"/></g><g transform="translate(89.637 5.777)"><circle class="f" cx="3.235" cy="3.235" r="3.235"/><circle class="c" cx="1.386" cy="1.386" r="1.386" transform="translate(1.849 1.849)"/></g></g></g></g><g class="k" transform="translate(-194 2976)"><g transform="translate(194 -2976)"><g class="l" transform="translate(-514 -939)"><g transform="translate(121 281)"><path class="m" d="M2,166c34.624-83.973,384.313-36.039,614-62s502.158-147.225,682-88-11.52,202.693-424,235S-32.624,249.973,2,166Z" transform="translate(199 4069)"/><g transform="translate(892 1185)"><g transform="translate(137 2790)"><g transform="translate(13)"><path class="n" d="M0,0C8.833,20.989,24.047,36.176,32,58a121.559,121.559,0,0,1,7,41c.065,7.828.037,16.172,0,24-.036,7.634-.352,14.415-1,22-.651,7.625-1.678,15.327-2,23-.25,5.978.026,13.547-2,19-1.611,4.337-5.913,4.26-7-1-.6-2.924-.067-6,0-9,.085-3.855-.114-7.145,0-11,.46-15.468-.312-31.526,0-47,.3-15.119,2.15-29.982,0-45-1.776-12.4-5.816-22.791-11-33C11.012,31.178,5.371,21.173,2,10A53.917,53.917,0,0,1,0,0C.157-.073-.1-.192,0,0Z" transform="translate(3 0)"/><path class="o" d="M1,1C2.749,2.263,3.818,4.177,5,6c1.47,2.266,3.53,3.732,5,6,3.065,4.728,5.206,10.08,8,15A94.908,94.908,0,0,1,29,57a322.68,322.68,0,0,1,4,34c.92,12.044,1.878,23.909,2,36,.055,5.417.65,11.621,0,17-.4,3.349-2.593,6.027-6,6-7.237-.057-10.581-8.426-12-15-2.089-9.679-2.331-20.1-2-30,.4-11.936,2.1-23.11,3-35,.95-12.587.327-25.149-4-37-2.186-5.989-4.722-12.051-7-18A50.767,50.767,0,0,0,4,8,71.523,71.523,0,0,1,0,0C.324.206.676.794,1,1Z" transform="translate(0 41)"/><path class="n" d="M17,1c.222-.172.778-.827,1-1-.639,2.693-2.118,4.539-3,7-.793,2.213-.466,4.581-1,7-1.255,5.681-2.815,11.271-4,17C7.654,42.337,7.462,55.422,9,68c1.453,11.881,3.905,23.121,5,35,.908,9.851,1.866,20.6,1,30-.588,6.383-2.746,13.644-8,13-2.474-.3-3.48-3.639-4-7-.835-5.4-1.674-10.632-2-16C.274,111.018.143,98.858,0,87-.136,75.812-.748,64.907,0,54,.721,43.476,3.775,33.75,7,25c1.7-4.61,3.092-9.606,5-14,.915-2.107,2.084-3.894,3-6C15.736,3.306,15.814,2.083,17,1Z" transform="translate(67 16)"/><path class="n" d="M0,0C.957-1.606,3.679,4.334,4,5c-.136-.331-.863-.669-1-1,1.9,3.158,3.92,6.379,5,10,1.069,3.585,2,7.39,3,11,1.882,6.774,4.295,13.165,6,20a65.245,65.245,0,0,1,2,20c-.418,7.16-1.488,13.844-1,21,.233,3.418,2.239,6.709,3,10s1.1,6.747,2,10c.207-.424,0,.892,0,1a11.774,11.774,0,0,1,0,3,5.991,5.991,0,0,1-4,4c-3.456.988-6.885-2.68-8-6-1.6-4.764-2.238-9.993-3-15A72.459,72.459,0,0,1,7,79c.409-9.179,2.551-17.824,3-27,.489-9.99-2.343-19.276-4-29-.8-4.686-1.447-9.536-3-14A36.427,36.427,0,0,0,1,4C.511,3.05-.64,1.116,0,0Z" transform="translate(3 76)"/><path class="p" d="M10,36c-.4,11.445-.474,22.676-2,34C6.443,81.556,4.5,92.433,3,104c-1.459,11.259-3.2,23.584-3,35,.15,8.409-1.339,21.85,8,26,9.459,4.2,11.379-13.076,12-19,1.19-11.366.578-23.572,0-35-.593-11.729-.773-23.314-2-35-1.363-12.981-3.142-25.982-4-39-.425-6.439-.117-12.56,0-19,.111-6.078.161-12.23-2-18-.113.082-.887-.082-1,0" transform="translate(21 25)"/><path class="o" d="M12,6c-1.7,2.478-3.394,5.375-5,8-2.874,4.7-5.218,9.285-6,16C-.636,44.054.683,59.516,1,74c.065,2.96-.167,6.183,1,9,1.058,2.554,3.115,4.01,5,4,4.035-.023,2.993-9.65,3-14,.012-7.623-1.074-15.384-1-23a155.006,155.006,0,0,1,2-22A131.884,131.884,0,0,1,16,7c.3-.9,2.014-8.2,0-7" transform="translate(68 91)"/><path class="p" d="M14,0c-2.653,0-1.92,13.3-2,15-.288,6.131-.818,11.868-1,18-.4,13.381-.99,26.773-3,40C6.918,80.12,6.35,87.934,5,95c-1.353,7.087-4.11,13.823-5,21-.855,6.9-.117,14.067,0,21,.117,6.975.086,14.086,1,21,.225,1.707.717,3.3,1,5a32.383,32.383,0,0,0,1,4,4.629,4.629,0,0,0,5,3c4.993-.912,8.294-7.42,10-12,2.178-5.848,2.86-11.837,4-18,1.292-6.983,2.645-13.891,3-21,.722-14.448.035-29.6-1-44-.576-8.009-1.983-16.04-3-24-1.013-7.926-2.153-15.051-3-23-.615-5.777-1.6-12.2-2-18-.1-1.383.029-10-2-10" transform="translate(48 22)"/><path class="o" d="M27,118c-.432-13.886-5.73-75.208-7-92-.318-4.2-3.6-21.235-4-26-1.075,1.347-1.012,22.183-1,27,.012,4.765-.7,9.261-1,14-.31,4.836-7.072,67.354-8,72-1.846,9.244-3.047,18.549-4,28-.928,9.212-3.242,19.74-2,29a27.767,27.767,0,0,0,2,6c.795,2.116,1.362,3.786,2,6a12.753,12.753,0,0,0,6,8c5.849,3.019,8.408-4.05,10-10a157.829,157.829,0,0,0,5-29c.847-11.04,2.346-21.883,2-33" transform="translate(32 0)"/></g><g transform="translate(0 159)"><rect class="d" width="91" height="91" rx="2" transform="translate(10)"/></g></g></g><path class="q" d="M16.687,0C12.284.085,2.3,1.792.687,7c-1.227,3.954,2.046,3.439,4,2,2.643-1.945,4.726-3.408,8-4,12.474-2.256,24.646,5.977,37,7,4.68.388,10.532.516,15-1,3.182-1.079,3.631-3.641,0-4-3.085-.3-6.837,1.027-10,1-13.089-.112-25.1-8.246-38-8" transform="translate(1353.313 3832)"/><g class="r" transform="translate(734.726 3800.301)"><path class="e" d="M4.587,101.773a11.36,11.36,0,0,1-1.313-.074c-1.432-.167-2.259-.492-2.6-1.021-.393-.606-.139-1.419.182-2.447a15.641,15.641,0,0,0,.42-1.532c.485-2.362.015-5.4-.439-8.346A43.853,43.853,0,0,1,.274,83.7c-.711-17.547-.39-35.8,0-53C.325,28.457.3,26.153.269,23.925c-.03-2.378-.06-4.836.006-7.226.013-.486.033-.924.052-1.347A21.485,21.485,0,0,0,.274,11.7,6.458,6.458,0,0,0-.01,10.511,2.666,2.666,0,0,1,.274,7.7C.937,6.833,2.34,6.43,4.688,6.43c1,0,2.046.07,3.116.149l.214.016c.93.069,1.808.134,2.526.134.282,0,.521-.01.731-.03l1.019-.1c3.6-.348,7.316-.709,10.981-.9,12.69-.667,25.566-1.564,38.019-2.432C86.481,1.513,112.526-.3,138.274-.3c.654,0,1.3,0,1.987-.006h.017c.685,0,1.393-.006,2.1-.006A60.639,60.639,0,0,1,155.274.7a8.064,8.064,0,0,1,1.478.521,5.157,5.157,0,0,0,1.522.479,2.241,2.241,0,0,0,.23.012,2.623,2.623,0,0,0,.6-.077l.025-.006a2.256,2.256,0,0,1,.5-.072,1.654,1.654,0,0,1,.644.142c1.348.558,1.624,1.592,1.973,2.9l.027.1c.473,1.767-.028,4.378-.47,6.682a32.852,32.852,0,0,0-.529,3.318,78.628,78.628,0,0,0-.082,8.738c.039,1.382.078,2.808.082,4.262q0,.757,0,1.513v.006a176.257,176.257,0,0,0,1,22.482c.742,5.764,1.641,13.36,2,21,.107,2.262.321,4.682.528,7.021.176,1.991.359,4.049.471,5.98a11.672,11.672,0,0,1-.058,1.588,7.444,7.444,0,0,0,.058,2.411.815.815,0,0,0,.63.682c.17.056.316.1.369.318.646,2.6.7,3.24-2,4a53.32,53.32,0,0,1-10.717,1.721c-3.648.258-7.263.279-10.954.279h-2.762c-6.241,0-12.507-.057-18.566-.112s-12.317-.111-18.527-.111c-6.937,0-12.98.073-18.474.223-4.638.127-9.339.222-13.886.315-13.48.274-27.417.557-41.113,1.685-1.729.143-3.55.271-5.312.4-2.558.181-5.2.368-7.688.6a36.973,36.973,0,0,0-5.058.987A29,29,0,0,1,4.587,101.773ZM59.244,33.21c8.843,0,17.185,6.952,23.889,12.539l1.142.95c2.875,2.386,5.857,4.621,8.741,6.782,1.4,1.047,2.837,2.126,4.26,3.219,1,.767,2.015,1.6,3.091,2.487a67.054,67.054,0,0,0,5.909,4.513,6.28,6.28,0,0,0,3.31,1.294c1.257,0,2.343-.725,4.141-1.927l.549-.366.817-.544a82.754,82.754,0,0,1,9.034-5.476,27.927,27.927,0,0,1,10.149-2.98c.679-.056,1.378-.084,2.077-.084a33.446,33.446,0,0,1,10.342,1.79,53.638,53.638,0,0,1,9.58,4.3,165.967,165.967,0,0,1-3-43,39.057,39.057,0,0,1,.549-4.054c.163-.949.332-1.929.451-2.946a8.331,8.331,0,0,1,.425-1.371c.371-1.031.792-2.2.575-2.628-.481-.949-2.223-1.07-3.686-1.07-.521,0-1.047.018-1.585.037l-.057,0c-.491.018-.954.036-1.352.036-.116,0-.22,0-.32,0-4.1-.128-8.267-.19-12.737-.19-4.439,0-9.1.062-14.263.19-22.751.56-42.7,1.541-61,3-5.426.433-10.9.856-16.192,1.264l-.044,0C33.01,9.818,21.608,10.7,10.274,11.7l-.234.021c-3.548.311-3.687.323-3.766,3.979-.012.544-.006,1.022,0,1.485s.013.96,0,1.515c-.06,2.357-.025,4.8.01,7.157.038,2.588.077,5.263-.01,7.843-.181,5.384-.623,10.892-1.05,16.219-.363,4.528-.738,9.207-.951,13.781,5.074-3.1,10-6.69,14.758-10.158,4.6-3.349,9.352-6.811,14.243-9.842,8.159-5.056,15.355-8.327,22-10A16.274,16.274,0,0,1,59.244,33.21Z" transform="translate(0 0)"/><path class="e" d="M-.012,1.943c0,2.788-.285,7.374,1,10,1.631,3.33,3.46,2.13,4-1,.309-1.793.576-7.412,0-9-.815-2.248-5-3.779-5,0" transform="translate(117.286 16.756)"/><path class="e" d="M13.167-.409c-2.618.092-10.229-.1-12,2-3.038,3.61,1.729,4.2,4,4,2.628-.234,11.24.107,13-2,2.944-3.525-2.942-4.075-5-4" transform="translate(109.107 20.108)"/><path class="s" d="M15.237,26.783h0A17.167,17.167,0,0,1,6.2,24.035,14.264,14.264,0,0,1,.285,17.12a11.559,11.559,0,0,1-.576-5.436A14.043,14.043,0,0,1,5.185,2.328,11.788,11.788,0,0,1,10.285.12a18.862,18.862,0,0,1,3.121-.257,17.864,17.864,0,0,1,8.371,2A11.353,11.353,0,0,1,27.285,8.12a13.168,13.168,0,0,1,.62,5.2A16.829,16.829,0,0,1,26.6,18.656a13.127,13.127,0,0,1-7.315,7.464A12.11,12.11,0,0,1,15.237,26.783ZM14.374,6.078c-3.427,0-7.65,1.732-9.089,5.042a5.177,5.177,0,0,0-.043,4.235A9.032,9.032,0,0,0,8.229,18.9a16.4,16.4,0,0,0,4.056,2.217,9.191,9.191,0,0,0,3.2.623,6.387,6.387,0,0,0,4.822-2.091,8.076,8.076,0,0,0,2.024-4.774,8.167,8.167,0,0,0-1.424-5.446A8.454,8.454,0,0,0,15.285,6.12C14.991,6.092,14.685,6.078,14.374,6.078Z" transform="translate(4.989 107.579)"/><path class="e" d="M46.372.392c-2.865.238-5.117,1.645-8,2-2.7.332-4.476-.263-7-1-3.051-.891-5.882-1.792-9-1-2.383.605-4.525,2.8-7,3-4.87.384-11.2-5.284-15,1-1.823,3.013,1.274,4.405,4,3,2.842-1.464,1.474-1.865,5-1,2.942.721,5.053,1.011,8,0a29.906,29.906,0,0,1,8-2,28.945,28.945,0,0,1,8,1c3.339.686,5.836.047,9-1a11.679,11.679,0,0,1,8,0c1.923.562,6.129,2.44,8,1,3.236-2.489-1.294-2.646-3-3-2.747-.569-6.149-2.233-9-2" transform="translate(38.902 115.307)"/><path class="e" d="M10.817,20.106h0a10.189,10.189,0,0,1-7.206-2.877A11.169,11.169,0,0,1,.316,10.723a9.656,9.656,0,0,1,1.3-6.433A10.421,10.421,0,0,1,7.846-.067,2.617,2.617,0,0,1,8.54-.148a15.507,15.507,0,0,1,6.306,2.081c1.508.966,2.817,2.928,4,6a9.687,9.687,0,0,1-.466,8.2,7.587,7.587,0,0,1-2.205,2.454,7.984,7.984,0,0,1-3.329,1.347A12.229,12.229,0,0,1,10.817,20.106ZM7.846,5.932A3.321,3.321,0,0,0,5.858,7.466a3.539,3.539,0,0,0-.311,2.258,6.906,6.906,0,0,0,1.847,3.543,4.812,4.812,0,0,0,3.3,1.668c.05,0,.1,0,.147,0,1.675-.082,2.6-.941,2.615-2.42a7.16,7.16,0,0,0-1.758-4.2,5.845,5.845,0,0,0-3.857-2.38h0Z" transform="translate(140.428 106.767)"/><path class="e" d="M1.083,84.857c-.869-2.1.244-3.115,1.982-3.6a36.745,36.745,0,0,1,.019-5.4c-.1-2.875.111-5.126,0-8-.264-6.848-.472-14.168-1-21-.5-6.531-1.964-12.419-2-19-.024-4.45-.9-15.977,3-19,6.7-3.909,4.109,9.614,4,12a139.992,139.992,0,0,0,1,21c.662,6.544-.745,13.455-1,20-.135,3.475.262,6.531,0,10a66.135,66.135,0,0,1-1.1,9c.957-.043,1.9-.027,2.691-.012.57.011,1.058.022,1.413.012,5.426-.164,10.575-.8,16-1,20.87-.785,42.134-.009,63-1,19.736-.938,39.249-.758,59-1,1.728.15,2.109,1.606,1,3-.815,1.023-3.468,1-5.4.982-.643-.007-1.207-.013-1.6.018-5.563.447-11.42.947-17,1-11.75.112-23.269.331-35,1-20.843,1.188-42.145,1.152-63,2-5.062.205-9.935.867-15,1-1.129.03-3.034.247-4.956.247C4.5,87.1,1.846,86.7,1.083,84.857Zm151-18c-.438-7.6-1.312-15.417-2-23-1.112-12.259-2.01-24.692-2-37,0-2.922,3.446-2.987,5-1,1.487,1.9.964,7.726,1,10,.12,7.493.328,14.54,1,22,.668,7.4,1.484,14.591,2,22,.239,3.424,2.825,18-1,20a2.506,2.506,0,0,1-1.149.325C151.37,80.181,152.208,69.013,152.083,66.857Zm-149-59c-1.251-.511-2.687-1.485-2-3C1.652,3.6,4.094,3.7,5.81,3.8c.512.031.959.06,1.273.055,2.039-.041,3.948,0,5.834.049,2.667.063,5.287.126,8.167-.049,11.159-.683,22.817-1.81,34-2,21.31-.364,42.681-1.8,64-2,6.314-.058,12.694.638,19,1,1.47.085,2.832.047,4.2.01,1.234-.033,2.472-.066,3.8-.01A21.765,21.765,0,0,0,148.523.7c1.708-.161,3.654-.321,4.559.158,5.566,2.945-5.621,4.023-7,4-5.785-.1-12.217-.859-18-1-21.275-.523-42.745.128-64,1-10.225.419-19.778,1.426-30,2-5.586.314-11.412.706-17,1-1.44.076-2.965.046-4.479.017-1.194-.023-2.383-.046-3.521-.017-1.041.027-2.663.276-4.071.276A5.325,5.325,0,0,1,3.083,7.857Z" transform="translate(2.191 144.842)"/><path class="e" d="M2.105,48.844c-1.359-.03-1.859-.353-2-2-.181-2.106,2.629-2.315,4-3,4.7-2.351,10.257-4.738,15-7,9.419-4.493,18.458-8.772,28-13l.946-.42Q39.6,20.566,31.1,17.844c-3.039-.978-23.777-6.177-23-9,.872-3.164,19.1,5.075,22,6,7.543,2.4,15.075,4.014,22.555,6.506,16.792-7.621,34-16.038,51.445-21.506,1.118-.35,1.254,1.033,1,2-.339,1.294-3.9,2.507-5,3-4.371,1.952-8.629,4.047-13,6-9.521,4.254-19.48,7.743-29,12l-.525.235c6.793,2.45,13.972,5.233,20.524,7.765,3.546,1.37,6.462,2.611,10,4,1.771.7,9.576,2.23,10,4,.6,2.5-7.751-.6-9-1-3.531-1.128-6.514-1.743-10-3-7.8-2.811-16.169-6.276-24-9q-1.025-.357-2.049-.71c-8.329,3.828-16.692,7.884-24.951,11.71-4.433,2.054-8.6,3.871-13,6-3.232,1.565-9.3,6-12.906,6Z" transform="translate(28.169 163.855)"/><path class="e" d="M13.532,24.88A13.841,13.841,0,0,1,4.92,21.8a8.366,8.366,0,0,1-3-4,9.826,9.826,0,0,1,0-4,2.1,2.1,0,0,1-.309.023A1.951,1.951,0,0,1-.08,12.8c-.3-3.688,3.207-6.941,5.323-8.551A22.94,22.94,0,0,1,14.92-.2a9.1,9.1,0,0,1,1.137-.072,9.934,9.934,0,0,1,7.174,3.308A13.64,13.64,0,0,1,26.92,12.8a12.132,12.132,0,0,1-3.715,8.239A14.3,14.3,0,0,1,14.92,24.8,12.188,12.188,0,0,1,13.532,24.88Zm-3.09-18.2A1.172,1.172,0,0,0,9.92,6.8a8.192,8.192,0,0,0-3,3C5.4,12.356,5.1,15.014,6.092,17.094,7.046,19.087,9.116,20.4,11.92,20.8a12.552,12.552,0,0,0,1.754.123,11.478,11.478,0,0,0,6.741-2.083A8.44,8.44,0,0,0,23.92,12.8a8.012,8.012,0,0,0-1.689-5.854A8.629,8.629,0,0,0,16.92,3.8c-.214-.019-.418-.029-.606-.029A2.761,2.761,0,0,0,13.683,5.2,4.553,4.553,0,0,1,11.92,6.8a.834.834,0,0,1-.371.086,1.859,1.859,0,0,1-.521-.1l-.014,0A2.01,2.01,0,0,0,10.443,6.676Z" transform="translate(6.354 236.897)"/><path class="e" d="M7.673.7c-2.383,1.263-5.6,3.6-7,6-1.476,2.533-.11,5.2,3,4,2.469-.951,4.367-4.031,7-5,2.324-.855,2.544-.851,5,0,2.531.877,5.264,2.215,8,2,3.439-.27,6.634-2.546,10-3,2.834-.382,5.286.561,8,1,3.149.509,5.054-.38,8-1,2-.422,5.538,1.643,7,1,3.287-1.445-.181-3.416-2-4-3.065-.983-5.085.185-8,1-3.165.885-4.975-.187-8-1-6.121-1.645-10.2,2.723-16,2-5.372-.67-9.369-5.981-15-3" transform="translate(38.602 243.996)"/><path class="e" d="M9.641,18.338h0c-3.455,0-6.415-1.058-8.12-2.9A6.514,6.514,0,0,1-.127,10.291,9.448,9.448,0,0,1,3.5,3.31,16.954,16.954,0,0,1,10.873.291,8.9,8.9,0,0,1,12.555.123a6.341,6.341,0,0,1,5.1,2.388,9.253,9.253,0,0,1,1.891,5.461,10.824,10.824,0,0,1-1.992,6.75,8.868,8.868,0,0,1-6.678,3.57C10.465,18.322,10.05,18.338,9.641,18.338Zm3.75-14.06c-3.323,0-6.353,1.553-7.517,3.014s-1.667,2.76-1.5,3.866a3.175,3.175,0,0,0,1.5,2.134,6.994,6.994,0,0,0,3.972,1.29,6.308,6.308,0,0,0,3.564-1.1,6.106,6.106,0,0,0,2.237-2.756c.874-2.211.228-4.556-1.773-6.432C13.72,4.282,13.557,4.277,13.391,4.277Z" transform="translate(133.401 237.408)"/></g><g transform="translate(885 2364)"><g transform="translate(-265 1668)"><path class="t" d="M0,0,36.631,126.227,53.86,221H71.153L53.891,0Z" transform="translate(44 0)"/><path class="u" d="M24.974,0c2.556,65.574,1.548,101.34.976,107.3S22.13,153.156,0,223H17.986c29.308-67,39.539-106.9,42.9-115.7S74.176,62.734,88.67,0Z" transform="translate(2.564 0)"/><path class="p" d="M0,0Q14.292,65.153,49.439,208H74.732C76.6,110.254,68.653,45.92,54.891,0Z" transform="translate(43.214 0)"/><path class="v" d="M24.079,0C26.583,65.574,20.1,130.177,0,209.021H26.986C56.348,143.018,77.393,78.734,91.775,0Z" transform="translate(3.331 0)"/><g transform="translate(0 199)"><path class="w" d="M0,18,.939,2.856a1,1,0,0,1,.907-.934L22.826,0l35.98,13.357a2,2,0,0,1,1.228,2.421L58.553,21H1.985Z" transform="translate(0 19)"/></g><g transform="translate(94 199)"><path class="w" d="M0,18,.939,2.856a1,1,0,0,1,.907-.934L22.826,0l35.98,13.357a2,2,0,0,1,1.228,2.421L58.553,21H1.985Z" transform="translate(0 19)"/></g><path class="x" d="M0,0Q14.292,65.153,49.439,208H74.732C76.6,110.254,68.653,45.92,54.891,0Z" transform="translate(43.214 0)"/></g><g transform="translate(-302 1393)"><g transform="translate(76.408 45)"><path class="u" d="M0,105,11.8,49.609C5.221,41.829.765,32.294,1.509,21.612,3.655-9.17,46.213-2.4,54.49,13.138s7.3,54.944-3.4,57.72c-4.267,1.107-13.356-1.605-22.607-7.219L34.286,105Z" transform="translate(-0.408 0)"/></g><path class="w" d="M14.708,66.768C10.455,47.439-1.659,34.264.191,25.625A14.527,14.527,0,0,1,10.054,14.88S14.2-2.247,36.784.31,73.157,12.451,67.2,33.537c-5.473,0-12.079-2.022-21.215,1.442-4.348,1.649-6.22,10.226-6.22,10.226H35.641s-6.01-10.179-11.852-7.481-2.656,13.107-2.656,13.107L19.1,66.768Z" transform="translate(70.588 34.637)"/></g><g transform="translate(-261.894 1495.42)"><path class="u" d="M36.4,157.133,0,140.112l8.126-22.65L44.883,147.9q14.955,4.551,24.988,11.323c1.58,1.623,3.49,4.911-3.064,4.342s-13.468-.834-14.371,1.688,3.061,5.534,1.233,8.935a.85.85,0,0,1-.8.485Q49.641,174.673,36.4,157.133ZM11.985,30.622,55.664,15.835Q67.885,5.106,78.721.146c2.1-.446,5.579-.187,1.232,5.373s-8.7,11.627-7.455,13.958,5.762.574,7.071,4.266q1.308,3.693-22.471,5.29L23.137,51.571Z" transform="translate(116.532)"/><path class="y" d="M15.62.153C45.848,35.627,82.158,59.3,131.372,80.837l-6.457,15.077-3.662,8.55c-50.339-6.839-77.291-11.882-99.312-47.15C16.414,48.462,6.122,18.282.024,2.586Z" transform="matrix(0.966, 0.259, -0.259, 0.966, 52.515, 31.299)"/><path class="c" d="M0,148.139H88.73S58.582,44.452,57.929,5.811C57.906,4.5,55.755,2.183,54.8,2.486,44.365,5.811,32.464,0,32.464,0,11.428,38.15,4.154,85.121,0,148.139Z" transform="translate(11.605 27.58)"/><path class="z" d="M1.638,191.809c-7.514-56.946,12.235-135.9,30.543-175.726.7-1.522,2.188-4.388,5.694-4.388H51.622l.018.061c4.632.042,9.788.251,15.412.459C92.313,13.154,127.006,14.09,165.93,0l4.7,26.474C134.66,52.561,98.24,72.769,66.326,69.9c13.857,67.033,13.218,121.91-17.376,121.91Z" transform="translate(0 15.885)"/></g></g></g></g></g></g><g transform="translate(599 3252)"><rect class="j" width="6" height="25" rx="3" transform="translate(0 32)"/><rect class="j" width="6" height="41" rx="3" transform="translate(14 16)"/><rect class="e" width="6" height="49" rx="3" transform="translate(28 8)"/><rect class="i" width="6" height="41" rx="3" transform="translate(42 16)"/><rect class="aa" width="6" height="57" rx="3" transform="translate(56)"/></g><g transform="translate(553 3263)"><path class="ab" d="M29.051,28.5a8.074,8.074,0,1,1-5.9-13.554V0A23.146,23.146,0,0,0,0,23,23.146,23.146,0,0,0,23.15,46,22.873,22.873,0,0,0,40,38.718Z"/><path class="ac" d="M0,0V14.95A8.05,8.05,0,0,1,8.05,23H23A23.071,23.071,0,0,0,0,0Z" transform="translate(23)"/><path class="ad" d="M3.073,0A7.98,7.98,0,0,1,0,6.293L9.2,18A22.81,22.81,0,0,0,18,0Z" transform="translate(28 23)"/></g></g></svg>